<svg width="96" height="96" xmlns="http://www.w3.org/2000/svg" xmlns:xlink="http://www.w3.org/1999/xlink" overflow="hidden"><defs><clipPath id="clip0"><rect x="592" y="312" width="96" height="96"/></clipPath></defs><g clip-path="url(#clip0)" transform="translate(-592 -312)"><path d="M623 343 612 343 612 336 623 336 623 343ZM638 336 638 343 627 343 627 336 638 336ZM653 336 653 343 642 343 642 336 653 336ZM668 336 668 343 657 343 657 336 668 336ZM668 354 657 354 657 347 668 347 668 354ZM668 362.5 657 363.5 657 358 668 358 668 362.5ZM623 358 623 366.5 612 367.5 612 358 623 358ZM623 354 612 354 612 347 623 347 623 354ZM638 354 627 354 627 347 638 347 638 354ZM642 354 642 347 653 347 653 354 642 354ZM638 365.2 627 366.2 627 358 638 358 638 365.2ZM642 358 653 358 653 363.8 642 364.8 642 358ZM674 368 674 330 612 330 612 329C612 324 608 320 603 320 601.3 320 600 321.3 600 323 600 324.7 601.3 326 603 326 604.7 326 606 327.3 606 329L606 379C606 384 610 388 615 388L618 388 662 388 671 388C672.7 388 674 386.7 674 385 674 383.3 672.7 382 671 382L615 382C613.3 382 612 380.7 612 379L612 373.5 674 368Z" fill="#B1191A"/><path d="M624 394C624 397.314 621.314 400 618 400 614.686 400 612 397.314 612 394 612 390.686 614.686 388 618 388 621.314 388 624 390.686 624 394Z" fill="#B1191A"/><path d="M668 394C668 397.314 665.314 400 662 400 658.686 400 656 397.314 656 394 656 390.686 658.686 388 662 388 665.314 388 668 390.686 668 394Z" fill="#B1191A"/></g></svg>